PathFileType	4	(X/Y/Z)	/home/nbianco/repos/AddBiomechanics/server/engine/../data/Rajagopal2015/processed//results/MarkerData/walk.trc
DataRate	CameraRate	NumFrames	NumMarkers	Units	OrigDataRate	OrigDataStartFrame	OrigNumFrames
100	100	10	41	m	100	208	238
Frame#	Time	L.ASIS			L.Ankle			L.Biceps			L.Clavicle			L.Elbow			L.Forearm			L.Heel			L.Knee			L.MT5			L.PSIS			L.SH1			L.SH2			L.SH3			L.Shoulder			L.TH1			L.TH2			L.TH3			L.TH4			L.Toe			L.Wrist			R.ASIS			R.Ankle			R.Biceps			R.Clavicle			R.Elbow			R.Forearm			R.Heel			R.Knee			R.MT5			R.PSIS			R.SH1			R.SH2			R.SH3			R.SH4			R.Shoulder			R.TH1			R.TH2			R.TH3			R.Toe			R.Wrist			S2		
		X1	Y1	Z1	X2	Y2	Z2	X3	Y3	Z3	X4	Y4	Z4	X5	Y5	Z5	X6	Y6	Z6	X7	Y7	Z7	X8	Y8	Z8	X9	Y9	Z9	X10	Y10	Z10	X11	Y11	Z11	X12	Y12	Z12	X13	Y13	Z13	X14	Y14	Z14	X15	Y15	Z15	X16	Y16	Z16	X17	Y17	Z17	X18	Y18	Z18	X19	Y19	Z19	X20	Y20	Z20	X21	Y21	Z21	X22	Y22	Z22	X23	Y23	Z23	X24	Y24	Z24	X25	Y25	Z25	X26	Y26	Z26	X27	Y27	Z27	X28	Y28	Z28	X29	Y29	Z29	X30	Y30	Z30	X31	Y31	Z31	X32	Y32	Z32	X33	Y33	Z33	X34	Y34	Z34	X35	Y35	Z35	X36	Y36	Z36	X37	Y37	Z37	X38	Y38	Z38	X39	Y39	Z39	X40	Y40	Z40	X41	Y41	Z41

209	2.08	2.07269	0.992257	-0.377293	2.23759	0.108406	-0.376422	1.93179	1.27537	-0.522475	2.03276	1.45419	-0.293085	1.88054	1.16046	-0.542312	1.92795	1.03068	-0.572495	2.16312	0.0269058	-0.334851	2.1455	0.520181	-0.388738	2.35504	0.0534355	-0.39916	1.85879	0.984081	-0.312827	2.20613	0.424983	-0.373388	2.11671	0.4127	-0.411809	2.13582	0.297347	-0.405922	1.9645	1.49786	-0.438242	2.15547	0.802787	-0.40158	2.1852	0.676958	-0.377365	2.07066	0.782787	-0.464252	2.08438	0.649768	-0.430711	2.44597	0.0985813	-0.295715	1.95629	0.918495	-0.577938	2.06375	0.980253	-0.122726	1.59549	0.179154	-0.152705	2.03564	1.24037	-0.0141823	2.03271	1.45399	-0.242266	2.00284	1.14656	0.026656	2.12347	1.05713	0.0254004	1.48887	0.14874	-0.2084	1.87327	0.495682	-0.117631	1.63752	0.039878	-0.117357	1.85644	0.989449	-0.221585	1.82742	0.407418	-0.111756	1.75322	0.321702	-0.11549	1.76075	0.45815	-0.118529	1.6824	0.36698	-0.126178	1.97742	1.49417	-0.0937359	1.98293	0.745101	-0.0669291	1.87459	0.750151	-0.0693543	1.85981	0.626294	-0.105841	1.74854	0.0436469	-0.21756	2.20345	0.963945	0.0220009	1.8464	0.964292	-0.265181
210	2.09	2.08793	0.993342	-0.377618	2.24183	0.106765	-0.376979	1.94655	1.27572	-0.524352	2.04614	1.45502	-0.294836	1.89563	1.16061	-0.544048	1.94362	1.03082	-0.573753	2.16404	0.027887	-0.335046	2.16044	0.521367	-0.389223	2.35742	0.0473603	-0.399699	1.87353	0.985272	-0.314972	2.21807	0.42383	-0.374053	2.12931	0.413972	-0.414347	2.14465	0.298135	-0.408018	1.97805	1.49835	-0.440188	2.16881	0.802911	-0.403628	2.19824	0.67692	-0.379622	2.0838	0.783308	-0.466047	2.09675	0.65028	-0.432052	2.45046	0.0903519	-0.296858	1.97227	0.918569	-0.578774	2.07758	0.980781	-0.123874	1.60818	0.186848	-0.152074	2.04713	1.24059	-0.0165841	2.04598	1.45478	-0.244068	2.01322	1.14676	0.0239809	2.13276	1.05583	0.0234777	1.50125	0.164702	-0.209737	1.89457	0.494493	-0.1158	1.63969	0.0437337	-0.117628	1.87122	0.990081	-0.223516	1.84575	0.407211	-0.108781	1.76913	0.325306	-0.113589	1.78141	0.460859	-0.119448	1.70019	0.372144	-0.127023	1.98997	1.49495	-0.0956397	2.00055	0.745148	-0.0672491	1.89222	0.748829	-0.0707631	1.87997	0.624003	-0.105779	1.74939	0.0432771	-0.216978	2.21159	0.961695	0.0206148	1.86146	0.965022	-0.267371
211	2.1	2.1026	0.994829	-0.378347	2.24577	0.10573	-0.377411	1.96153	1.27627	-0.526162	2.0594	1.45599	-0.296492	1.91115	1.16092	-0.545885	1.95973	1.0312	-0.575095	2.16475	0.0285396	-0.335189	2.17564	0.52321	-0.389426	2.35924	0.0430026	-0.400027	1.88791	0.986708	-0.316874	2.22927	0.423141	-0.3746	2.1411	0.415589	-0.4165	2.15329	0.299348	-0.410058	1.99172	1.49899	-0.441982	2.18218	0.804312	-0.405487	2.21222	0.678375	-0.381368	2.09756	0.784307	-0.468116	2.11028	0.651545	-0.433171	2.45391	0.08338	-0.296862	1.98902	0.919049	-0.579733	2.09159	0.981338	-0.125391	1.62292	0.194751	-0.151301	2.05873	1.24101	-0.0190226	2.05901	1.45574	-0.245756	2.02332	1.14728	0.0213828	2.14183	1.05468	0.0215926	1.51614	0.181931	-0.210377	1.91724	0.492699	-0.112939	1.64286	0.0489942	-0.117599	1.88563	0.990759	-0.225281	1.86537	0.407531	-0.105979	1.78616	0.328201	-0.110656	1.80349	0.463329	-0.1201	1.71926	0.377235	-0.127778	2.00229	1.4959	-0.0973821	2.01866	0.745258	-0.0673313	1.9105	0.747207	-0.0718376	1.90069	0.621398	-0.105071	1.75091	0.0424783	-0.216161	2.21939	0.959423	0.0192598	1.87597	0.965996	-0.269482
212	2.11	2.1167	0.996704	-0.379608	2.24896	0.105202	-0.377449	1.97653	1.27697	-0.527925	2.07255	1.4571	-0.297999	1.92691	1.1614	-0.547857	1.97628	1.03179	-0.576478	2.16524	0.0288065	-0.335097	2.19044	0.525587	-0.389375	2.36063	0.0408917	-0.399958	1.9019	0.988317	-0.318515	2.23985	0.422893	-0.374851	2.15213	0.417283	-0.418238	2.16201	0.300752	-0.412165	2.00543	1.4998	-0.443617	2.19601	0.806801	-0.407079	2.22658	0.680994	-0.382267	2.11198	0.7858	-0.470192	2.12482	0.653626	-0.434372	2.45618	0.0777918	-0.295517	2.00614	0.919602	-0.580809	2.10561	0.981981	-0.127263	1.63945	0.202934	-0.150217	2.07007	1.24152	-0.0213989	2.07192	1.45689	-0.247314	2.03319	1.14813	0.018973	2.15083	1.05374	0.0197626	1.53355	0.200225	-0.210327	1.94058	0.490804	-0.110089	1.64694	0.0556081	-0.117382	1.89963	0.991382	-0.226777	1.88626	0.408236	-0.103363	1.80422	0.331029	-0.10803	1.82657	0.465721	-0.120191	1.7396	0.382261	-0.128386	2.01458	1.49701	-0.0989608	2.0371	0.745527	-0.0672241	1.92878	0.745038	-0.0724967	1.92172	0.618592	-0.103739	1.75388	0.0412384	-0.215116	2.2269	0.957155	0.0179312	1.89019	0.966915	-0.271373
213	2.12	2.13031	0.998934	-0.38127	2.25127	0.105067	-0.377227	1.99149	1.27785	-0.529633	2.08562	1.45835	-0.299286	1.94276	1.16196	-0.550012	1.99336	1.03259	-0.577854	2.16567	0.0291048	-0.334987	2.20346	0.52722	-0.389585	2.36157	0.0401434	-0.399619	1.91562	0.989833	-0.319851	2.24997	0.422862	-0.374719	2.163	0.41893	-0.419852	2.17071	0.302322	-0.414126	2.01905	1.50081	-0.44506	2.20992	0.809674	-0.408396	2.24047	0.683979	-0.382806	2.12633	0.787806	-0.471996	2.13949	0.656454	-0.435865	2.45759	0.0738334	-0.294149	2.02378	0.920491	-0.581738	2.11934	0.982708	-0.129381	1.65737	0.211346	-0.149083	2.08109	1.24208	-0.0235703	2.0848	1.45815	-0.248675	2.04339	1.14915	0.016579	2.15969	1.0528	0.0179843	1.55329	0.219056	-0.209806	1.96435	0.489024	-0.107646	1.6525	0.0636592	-0.11725	1.91315	0.991864	-0.228065	1.90803	0.40911	-0.101038	1.82361	0.33424	-0.106154	1.85052	0.468139	-0.119814	1.7611	0.387315	-0.128875	2.02698	1.49828	-0.100343	2.05543	0.745871	-0.0669675	1.94708	0.742705	-0.0727592	1.94292	0.615648	-0.101685	1.75841	0.0396311	-0.214036	2.23408	0.954921	0.0166934	1.90379	0.967868	-0.272997
214	2.13	2.14354	1.00133	-0.383215	2.25265	0.104947	-0.377035	2.00652	1.27889	-0.531266	2.0985	1.45967	-0.300343	1.95891	1.16275	-0.552214	2.01084	1.03358	-0.579184	2.1659	0.0296312	-0.33514	2.21453	0.528036	-0.390178	2.36222	0.0396702	-0.399554	1.92876	0.991421	-0.32095	2.25955	0.422792	-0.374459	2.17367	0.42068	-0.421393	2.17878	0.304	-0.415489	2.0325	1.50204	-0.44629	2.22325	0.812214	-0.409512	2.2534	0.686532	-0.38346	2.1401	0.790171	-0.473588	2.15314	0.659118	-0.437534	2.45814	0.07098	-0.293712	2.04203	0.921688	-0.582538	2.13276	0.983468	-0.131735	1.67629	0.220003	-0.148094	2.09203	1.24286	-0.0254158	2.0975	1.4595	-0.249783	2.05353	1.15006	0.0141965	2.16817	1.05186	0.0162998	1.57533	0.237793	-0.208775	1.98823	0.487644	-0.105611	1.66011	0.0731799	-0.117158	1.92629	0.992263	-0.229074	1.93059	0.410274	-0.0990036	1.84404	0.337919	-0.104744	1.87508	0.470858	-0.119496	1.78352	0.392569	-0.129368	2.03935	1.49973	-0.10149	2.07319	0.746334	-0.0666307	1.96491	0.740551	-0.0727848	1.96396	0.612858	-0.0996227	1.76386	0.0379068	-0.212866	2.24094	0.952714	0.0155526	1.91691	0.968715	-0.274248
215	2.14	2.15634	1.00372	-0.385407	2.25369	0.104918	-0.376955	2.02184	1.28007	-0.532771	2.11117	1.46107	-0.301199	1.97534	1.16372	-0.554448	2.02873	1.03479	-0.580475	2.16598	0.0304289	-0.335558	2.22451	0.528711	-0.391245	2.36268	0.0392333	-0.399677	1.94157	0.992909	-0.32166	2.26812	0.422431	-0.374438	2.18316	0.422321	-0.422527	2.18584	0.305573	-0.416129	2.04571	1.50345	-0.447278	2.23574	0.813865	-0.410672	2.26523	0.688114	-0.384355	2.15309	0.792416	-0.475181	2.16526	0.661098	-0.439135	2.45829	0.0691771	-0.294248	2.06096	0.923174	-0.583287	2.14608	0.984306	-0.133946	1.69534	0.228786	-0.147382	2.10285	1.24375	-0.0268899	2.11013	1.461	-0.25059	2.06354	1.15107	0.011941	2.17636	1.05104	0.0147811	1.5998	0.255965	-0.207445	2.01214	0.486869	-0.103949	1.66991	0.0838434	-0.116988	1.939	0.992289	-0.229785	1.95391	0.41191	-0.0971883	1.86536	0.341974	-0.103436	1.89994	0.47385	-0.119436	1.80651	0.398039	-0.129934	2.05164	1.50129	-0.102428	2.09053	0.747167	-0.0662382	1.98221	0.738719	-0.0726446	1.98471	0.610496	-0.0978072	1.76934	0.0359988	-0.21173	2.24765	0.950619	0.0144884	1.92969	0.969446	-0.275282
216	2.15	2.16878	1.00591	-0.387641	2.25471	0.10497	-0.376871	2.03722	1.28143	-0.534167	2.12364	1.4625	-0.301835	1.99207	1.16481	-0.556699	2.04701	1.03626	-0.581744	2.1661	0.0310522	-0.335755	2.23333	0.52928	-0.392455	2.36312	0.0389095	-0.399732	1.95381	0.99427	-0.322051	2.27598	0.422094	-0.374758	2.19119	0.423727	-0.423056	2.19165	0.307011	-0.416204	2.05876	1.50498	-0.448012	2.2479	0.814598	-0.412313	2.27598	0.688527	-0.385739	2.16523	0.793916	-0.476825	2.17574	0.662509	-0.440462	2.45849	0.0678082	-0.295024	2.0803	0.924963	-0.58395	2.15927	0.985492	-0.135998	1.71455	0.237701	-0.147132	2.11338	1.24473	-0.0280234	2.12258	1.46251	-0.251138	2.07328	1.15208	0.00983376	2.18448	1.0503	0.0134186	1.62616	0.273012	-0.206406	2.03599	0.486837	-0.102565	1.68213	0.0951023	-0.116854	1.95121	0.991942	-0.230304	1.97778	0.413986	-0.0953792	1.88731	0.346243	-0.101945	1.92546	0.476838	-0.119008	1.83051	0.403126	-0.130354	2.06374	1.50291	-0.103156	2.10734	0.748432	-0.0658023	1.99902	0.737047	-0.0727282	2.00524	0.608762	-0.0965157	1.77517	0.033576	-0.210838	2.25417	0.948677	0.0134434	1.94197	0.970062	-0.276152
217	2.16	2.18112	1.00782	-0.38982	2.25558	0.105078	-0.3767	2.0526	1.28299	-0.535404	2.1359	1.46404	-0.302165	2.00881	1.16605	-0.558906	2.06571	1.03798	-0.582959	2.1662	0.0313227	-0.335773	2.24111	0.529506	-0.39361	2.36338	0.0387386	-0.399658	1.96592	0.995405	-0.322339	2.28303	0.421708	-0.37552	2.19785	0.42486	-0.422954	2.19591	0.308332	-0.41587	2.07165	1.50669	-0.448539	2.25969	0.814452	-0.414534	2.28623	0.688094	-0.387656	2.17652	0.794546	-0.478497	2.18513	0.663393	-0.441272	2.45874	0.0666624	-0.295521	2.09991	0.92697	-0.584532	2.17206	0.987033	-0.137893	1.73601	0.245149	-0.146675	2.12371	1.24579	-0.0289112	2.13466	1.46406	-0.251472	2.08294	1.1532	0.00796949	2.19264	1.04974	0.0122392	1.6536	0.288278	-0.206164	2.05978	0.487495	-0.101236	1.69656	0.10605	-0.116944	1.96313	0.991313	-0.230661	2.00207	0.41643	-0.0937328	1.91044	0.350305	-0.100541	1.95143	0.479826	-0.118078	1.85528	0.407627	-0.130458	2.07564	1.50447	-0.103675	2.12351	0.750259	-0.0655412	2.01553	0.735845	-0.073171	2.02548	0.607831	-0.095917	1.78095	0.0307814	-0.210144	2.2603	0.946776	0.0124991	1.95408	0.970179	-0.27689
218	2.17	2.19329	1.00947	-0.391986	2.2562	0.105163	-0.376493	2.06814	1.28476	-0.536455	2.14805	1.4657	-0.30228	2.02591	1.16748	-0.561162	2.08466	1.03996	-0.584086	2.1663	0.0314394	-0.335767	2.24836	0.52944	-0.394645	2.36355	0.0386631	-0.399538	1.97798	0.996212	-0.322699	2.28889	0.420988	-0.376683	2.20287	0.425722	-0.422371	2.19864	0.30936	-0.415151	2.08437	1.50857	-0.448885	2.27116	0.813855	-0.417033	2.29609	0.687165	-0.389756	2.18711	0.794757	-0.479993	2.19393	0.663756	-0.441601	2.45903	0.0656249	-0.295871	2.11993	0.929301	-0.584971	2.18431	0.988897	-0.139574	1.75934	0.251262	-0.146116	2.13401	1.24691	-0.0295984	2.14663	1.46572	-0.251645	2.09255	1.15442	0.00636265	2.20047	1.04926	0.0112378	1.68088	0.300744	-0.206851	2.08384	0.488704	-0.0998921	1.71228	0.115739	-0.117374	1.97459	0.990687	-0.23111	2.02682	0.41911	-0.0924583	1.93432	0.354016	-0.0993512	1.9773	0.482874	-0.117258	1.88018	0.411937	-0.13027	2.08745	1.50608	-0.104066	2.13954	0.752785	-0.0658209	2.03209	0.735181	-0.0741648	2.04555	0.607548	-0.0961248	1.78774	0.02858	-0.209148	2.26625	0.944979	0.0117223	1.96586	0.970238	-0.277606
